<svg width="22" height="21" viewBox="0 0 22 21" fill="none" xmlns="http://www.w3.org/2000/svg">
<path d="M16.125 7.33333C16.125 5.97409 15.585 4.67053 14.6239 3.70941C13.6628 2.74828 12.3592 2.20833 11 2.20833C9.64077 2.20833 8.3372 2.74828 7.37608 3.70941C6.41495 4.67053 5.875 5.97409 5.875 7.33333C5.875 13.3125 3.3125 15.0208 3.3125 15.0208H18.6875C18.6875 15.0208 16.125 13.3125 16.125 7.33333Z" stroke="white" stroke-width="2" stroke-linecap="round" stroke-linejoin="round"/>
<path d="M12.4777 18.4375C12.3275 18.6964 12.112 18.9113 11.8526 19.0606C11.5933 19.21 11.2993 19.2886 11 19.2886C10.7007 19.2886 10.4067 19.21 10.1473 19.0606C9.888 18.9113 9.67245 18.6964 9.52228 18.4375" stroke="white" stroke-width="2" stroke-linecap="round" stroke-linejoin="round"/>
</svg>
