<svg width="22" height="21" viewBox="0 0 22 21" fill="none" xmlns="http://www.w3.org/2000/svg">
<path fill-rule="evenodd" clip-rule="evenodd" d="M3.95988 1.5015C4.46779 0.993593 5.15666 0.708252 5.87496 0.708252H12.7083H12.7083C12.9864 0.708252 13.238 0.821757 13.4192 1.00497L18.5366 6.12237C18.7198 6.30362 18.8333 6.55518 18.8333 6.83325L18.8333 6.83965V17.0833C18.8333 17.8015 18.548 18.4904 18.04 18.9983C17.5321 19.5062 16.8433 19.7916 16.125 19.7916H5.87496C5.15666 19.7916 4.46779 19.5062 3.95988 18.9983C3.45197 18.4904 3.16663 17.8015 3.16663 17.0833V3.41659C3.16663 2.69829 3.45197 2.00942 3.95988 1.5015ZM5.87496 2.70825H11.7083V6.83325C11.7083 7.38554 12.156 7.83325 12.7083 7.83325H16.8333V17.0833C16.8333 17.2711 16.7587 17.4513 16.6258 17.5841C16.493 17.717 16.3128 17.7916 16.125 17.7916H5.87496C5.6871 17.7916 5.50693 17.717 5.37409 17.5841C5.24125 17.4513 5.16663 17.2711 5.16663 17.0833V3.41659C5.16663 3.22872 5.24125 3.04856 5.37409 2.91572C5.50693 2.78288 5.6871 2.70825 5.87496 2.70825ZM13.7083 4.12249L15.4191 5.83325H13.7083V4.12249ZM7.58331 10.1042C7.03103 10.1042 6.58331 10.552 6.58331 11.1042C6.58331 11.6565 7.03103 12.1042 7.58331 12.1042H14.4166C14.9689 12.1042 15.4166 11.6565 15.4166 11.1042C15.4166 10.552 14.9689 10.1042 14.4166 10.1042H7.58331ZM6.58331 14.5208C6.58331 13.9685 7.03103 13.5208 7.58331 13.5208H14.4166C14.9689 13.5208 15.4166 13.9685 15.4166 14.5208C15.4166 15.073 14.9689 15.5208 14.4166 15.5208H7.58331C7.03103 15.5208 6.58331 15.073 6.58331 14.5208ZM7.58331 6.6875C7.03103 6.6875 6.58331 7.13522 6.58331 7.6875C6.58331 8.23978 7.03103 8.6875 7.58331 8.6875H9.29165C9.84393 8.6875 10.2916 8.23978 10.2916 7.6875C10.2916 7.13522 9.84393 6.6875 9.29165 6.6875H7.58331Z" fill="white"/>
</svg>
