<svg width="22" height="21" viewBox="0 0 22 21" fill="none" xmlns="http://www.w3.org/2000/svg">
<g clip-path="url(#clip0_118_577)">
<path d="M11 13.3125C12.4152 13.3125 13.5625 12.1652 13.5625 10.75C13.5625 9.33477 12.4152 8.1875 11 8.1875C9.58477 8.1875 8.4375 9.33477 8.4375 10.75C8.4375 12.1652 9.58477 13.3125 11 13.3125Z" stroke="white" stroke-width="2" stroke-linecap="round" stroke-linejoin="round"/>
<path d="M17.3209 13.3125C17.2072 13.5701 17.1732 13.8559 17.2235 14.133C17.2737 14.4101 17.4058 14.6658 17.6027 14.8671L17.654 14.9183C17.8128 15.077 17.9388 15.2654 18.0248 15.4728C18.1108 15.6802 18.155 15.9025 18.155 16.127C18.155 16.3515 18.1108 16.5738 18.0248 16.7812C17.9388 16.9885 17.8128 17.177 17.654 17.3356C17.4953 17.4944 17.3069 17.6205 17.0995 17.7064C16.8921 17.7924 16.6698 17.8366 16.4453 17.8366C16.2208 17.8366 15.9985 17.7924 15.7911 17.7064C15.5838 17.6205 15.3953 17.4944 15.2367 17.3356L15.1854 17.2844C14.9841 17.0874 14.7284 16.9554 14.4514 16.9051C14.1743 16.8549 13.8885 16.8888 13.6309 17.0025C13.3782 17.1108 13.1628 17.2906 13.011 17.5197C12.8592 17.7489 12.7778 18.0174 12.7767 18.2923V18.4375C12.7767 18.8906 12.5967 19.3251 12.2763 19.6455C11.956 19.9658 11.5214 20.1458 11.0684 20.1458C10.6153 20.1458 10.1808 19.9658 9.86038 19.6455C9.54 19.3251 9.36002 18.8906 9.36002 18.4375V18.3606C9.35341 18.0779 9.26189 17.8037 9.09737 17.5737C8.93285 17.3436 8.70294 17.1684 8.43752 17.0708C8.17989 16.9571 7.8941 16.9232 7.61702 16.9734C7.33993 17.0237 7.08425 17.1558 6.88294 17.3527L6.83169 17.4039C6.67303 17.5628 6.48462 17.6888 6.27723 17.7748C6.06984 17.8607 5.84754 17.905 5.62304 17.905C5.39854 17.905 5.17624 17.8607 4.96885 17.7748C4.76146 17.6888 4.57305 17.5628 4.4144 17.4039C4.25556 17.2453 4.12956 17.0569 4.04358 16.8495C3.95761 16.6421 3.91336 16.4198 3.91336 16.1953C3.91336 15.9708 3.95761 15.7485 4.04358 15.5411C4.12956 15.3337 4.25556 15.1453 4.4144 14.9867L4.46565 14.9354C4.66256 14.7341 4.79466 14.4784 4.8449 14.2013C4.89514 13.9242 4.86122 13.6385 4.74752 13.3808C4.63924 13.1282 4.45946 12.9127 4.23029 12.761C4.00113 12.6092 3.73259 12.5278 3.45773 12.5267H3.31252C2.85944 12.5267 2.42492 12.3467 2.10455 12.0263C1.78417 11.7059 1.60419 11.2714 1.60419 10.8183C1.60419 10.3652 1.78417 9.93072 2.10455 9.61035C2.42492 9.28997 2.85944 9.10999 3.31252 9.10999H3.3894C3.67212 9.10338 3.94632 9.01186 4.17634 8.84734C4.40636 8.68282 4.58157 8.45291 4.67919 8.18749C4.79289 7.92986 4.82681 7.64407 4.77657 7.36699C4.72632 7.0899 4.59423 6.83422 4.39731 6.63291L4.34606 6.58166C4.18723 6.423 4.06122 6.23459 3.97525 6.0272C3.88928 5.81981 3.84503 5.59751 3.84503 5.37301C3.84503 5.14851 3.88928 4.92621 3.97525 4.71882C4.06122 4.51143 4.18723 4.32302 4.34606 4.16436C4.50472 4.00553 4.69313 3.87952 4.90052 3.79355C5.10791 3.70758 5.33021 3.66333 5.55471 3.66333C5.77921 3.66333 6.00151 3.70758 6.2089 3.79355C6.41629 3.87952 6.6047 4.00553 6.76335 4.16436L6.8146 4.21561C7.01591 4.41253 7.2716 4.54463 7.54868 4.59487C7.82577 4.64511 8.11156 4.61119 8.36919 4.49749H8.43752C8.69016 4.38921 8.90562 4.20943 9.05738 3.98026C9.20915 3.7511 9.29059 3.48256 9.29169 3.2077V3.06249C9.29169 2.60941 9.47167 2.17489 9.79205 1.85452C10.1124 1.53414 10.5469 1.35416 11 1.35416C11.4531 1.35416 11.8876 1.53414 12.208 1.85452C12.5284 2.17489 12.7084 2.60941 12.7084 3.06249V3.13936C12.7094 3.41422 12.7909 3.68276 12.9427 3.91193C13.0944 4.14109 13.3099 4.32088 13.5625 4.42916C13.8202 4.54286 14.1059 4.57678 14.383 4.52654C14.6601 4.47629 14.9158 4.3442 15.1171 4.14728L15.1684 4.09603C15.327 3.9372 15.5154 3.81119 15.7228 3.72522C15.9302 3.63925 16.1525 3.595 16.377 3.595C16.6015 3.595 16.8238 3.63925 17.0312 3.72522C17.2386 3.81119 17.427 3.9372 17.5856 4.09603C17.7445 4.25469 17.8705 4.4431 17.9565 4.65049C18.0424 4.85788 18.0867 5.08018 18.0867 5.30468C18.0867 5.52918 18.0424 5.75148 17.9565 5.95887C17.8705 6.16626 17.7445 6.35466 17.5856 6.51332L17.5344 6.56457C17.3375 6.76588 17.2054 7.02157 17.1551 7.29865C17.1049 7.57574 17.1388 7.86153 17.2525 8.11916V8.18749C17.3608 8.44013 17.5406 8.65559 17.7697 8.80735C17.9989 8.95912 18.2675 9.04056 18.5423 9.04166H18.6875C19.1406 9.04166 19.5751 9.22164 19.8955 9.54202C20.2159 9.86239 20.3959 10.2969 20.3959 10.75C20.3959 11.2031 20.2159 11.6376 19.8955 11.958C19.5751 12.2783 19.1406 12.4583 18.6875 12.4583H18.6106C18.3358 12.4594 18.0672 12.5409 17.8381 12.6926C17.6089 12.8444 17.4291 13.0599 17.3209 13.3125V13.3125Z" stroke="white" stroke-width="2" stroke-linecap="round" stroke-linejoin="round"/>
</g>
<defs>
<clipPath id="clip0_118_577">
<rect width="20.5" height="20.5" fill="white" transform="translate(0.75 0.5)"/>
</clipPath>
</defs>
</svg>
