<svg width="22" height="21" viewBox="0 0 22 21" fill="none" xmlns="http://www.w3.org/2000/svg">
<path d="M11 18.7917C15.7174 18.7917 19.5416 14.9674 19.5416 10.25C19.5416 5.53256 15.7174 1.70833 11 1.70833C6.28255 1.70833 2.45831 5.53256 2.45831 10.25C2.45831 14.9674 6.28255 18.7917 11 18.7917Z" stroke="white" stroke-width="2" stroke-linecap="round" stroke-linejoin="round"/>
<path d="M8.5144 7.6875C8.71522 7.11663 9.1116 6.63526 9.63332 6.32863C10.1551 6.02201 10.7685 5.90992 11.3649 6.01223C11.9614 6.11454 12.5024 6.42463 12.8921 6.88759C13.2818 7.35056 13.4951 7.93651 13.4942 8.54166C13.4942 10.25 10.9317 11.1042 10.9317 11.1042" stroke="white" stroke-width="2" stroke-linecap="round" stroke-linejoin="round"/>
<path d="M11 14.5208H11.0085" stroke="white" stroke-width="2" stroke-linecap="round" stroke-linejoin="round"/>
</svg>
