<svg width="29" height="30" viewBox="0 0 29 30" fill="none" xmlns="http://www.w3.org/2000/svg">
<path d="M22.6807 21.4665C23.4109 23.3712 23.1728 25.149 21.9664 26.7998C20.7601 28.4506 19.0617 29.276 16.8712 29.276C15.8236 29.276 14.8318 29.0061 13.896 28.4665C12.9588 27.9268 12.268 27.2125 11.8236 26.3236C9.18865 26.7045 7.00643 26.0296 5.27691 24.2988C3.54611 22.5693 2.83945 20.3553 3.15691 17.6569C2.20453 17.1172 1.47437 16.3795 0.966433 15.4436C0.458497 14.5065 0.204529 13.4347 0.204529 12.2284C0.204529 10.2919 1.0858 8.72805 2.84834 7.53694C4.60961 6.3471 6.33151 6.10138 8.01405 6.79979L10.9664 8.03789C11.6013 7.05376 12.4426 6.25186 13.4902 5.63218C14.5379 5.01376 15.6648 4.67281 16.8712 4.60932V0.704559H19.7283V4.99027C20.9029 5.33948 21.8712 5.88678 22.6331 6.63218C23.395 7.37884 24.0458 8.41884 24.5855 9.75217H28.7759V12.6093H24.8712C24.8077 13.8157 24.4826 14.9426 23.8959 15.9903C23.308 17.0379 22.522 17.8792 21.5379 18.5141L22.6807 21.4665ZM10.8712 22.6093C10.8712 21.7522 10.9429 20.9192 11.0864 20.1103C11.2287 19.3001 11.4426 18.5141 11.7283 17.7522C10.9982 18.1014 10.2121 18.3471 9.37024 18.4893C8.5296 18.6328 7.69659 18.6728 6.87119 18.6093C6.87119 19.8474 7.22802 20.8239 7.94167 21.5388C8.65659 22.2525 9.6331 22.6093 10.8712 22.6093ZM7.34738 14.7998C8.36326 14.7998 9.2604 14.6728 10.0388 14.4188C10.816 14.1649 11.8236 13.6569 13.0617 12.895L7.34738 10.5141C6.42675 10.1331 5.64135 10.1407 4.99119 10.5369C4.33977 10.9344 4.01405 11.5617 4.01405 12.4188C4.01405 13.2442 4.28389 13.8474 4.82357 14.2284C5.36326 14.6093 6.20453 14.7998 7.34738 14.7998ZM16.8712 25.4665C17.6648 25.4665 18.3074 25.1884 18.7988 24.6322C19.2915 24.0772 19.4109 23.4982 19.1569 22.895L16.5855 16.4188C15.9823 17.4347 15.5144 18.4506 15.1817 19.4665C14.8477 20.4823 14.6807 21.403 14.6807 22.2284C14.6807 23.276 14.8636 24.0772 15.2293 24.6322C15.5937 25.1884 16.141 25.4665 16.8712 25.4665ZM20.014 14.895C20.3315 14.5776 20.5855 14.1566 20.7759 13.6322C20.9664 13.109 21.0617 12.5617 21.0617 11.9903C21.0617 10.9744 20.7283 10.1173 20.0617 9.41884C19.395 8.72043 18.5696 8.37122 17.5855 8.37122C17.014 8.37122 16.4744 8.46646 15.9664 8.65694C15.4585 8.84741 15.0299 9.11725 14.6807 9.46646L18.395 11.1807L20.014 14.895Z" fill="#BFB2FF"/>
</svg>
